<svg viewBox="0 0 400 400" xmlns="http://www.w3.org/2000/svg">
  <defs>
    <!-- Gradients -->
    <linearGradient id="logoGradient" x1="0%" y1="0%" x2="100%" y2="100%">
      <stop offset="0%" style="stop-color:#1E3A8A;stop-opacity:1" />
      <stop offset="100%" style="stop-color:#2563EB;stop-opacity:1" />
    </linearGradient>

    <radialGradient id="glowGradient" cx="50%" cy="50%" r="50%">
      <stop offset="0%" style="stop-color:#60A5FA;stop-opacity:0.4" />
      <stop offset="100%" style="stop-color:#2563EB;stop-opacity:0" />
    </radialGradient>

    <filter id="glow">
      <feGaussianBlur stdDeviation="4" result="coloredBlur"/>
      <feMerge>
        <feMergeNode in="coloredBlur"/>
        <feMergeNode in="SourceGraphic"/>
      </feMerge>
    </filter>

    <filter id="boldGlow">
      <feGaussianBlur stdDeviation="5" result="coloredBlur"/>
      <feMerge>
        <feMergeNode in="coloredBlur"/>
        <feMergeNode in="coloredBlur"/>
        <feMergeNode in="SourceGraphic"/>
      </feMerge>
    </filter>

    <!-- Animation Styles -->
    <style>
      @keyframes float {
        0%, 100% { transform: translateY(0px); }
        50% { transform: translateY(-15px); }
      }

      @keyframes pulse {
        0%, 100% { r: 130px; stroke-width: 3px; opacity: 0.4; }
        50% { r: 155px; stroke-width: 1px; opacity: 0; }
      }

      @keyframes rotate {
        from { transform: rotate(0deg); }
        to { transform: rotate(360deg); }
      }

      @keyframes starPulse {
        0%, 100% { opacity: 1; transform: scale(1); }
        50% { opacity: 0.7; transform: scale(1.3); }
      }

      @keyframes bulbGlow {
        0%, 100% { filter: drop-shadow(0 0 8px rgba(96, 165, 250, 0.5)); }
        50% { filter: drop-shadow(0 0 16px rgba(96, 165, 250, 1)); }
      }

      .floating {
        animation: float 3s ease-in-out infinite;
      }

      .pulse-ring {
        animation: pulse 2s ease-out infinite;
      }

      .rotating-glow {
        animation: rotate 8s linear infinite;
      }

      .star-icon {
        animation: starPulse 2s ease-in-out infinite;
      }

      .bulb-glow {
        animation: bulbGlow 2s ease-in-out infinite;
      }
    </style>
  </defs>

  <!-- Outer Pulse Rings -->
  <circle cx="200" cy="200" r="130" fill="none" stroke="#2563EB" class="pulse-ring" opacity="0.4"/>
  <circle cx="200" cy="200" r="122" fill="none" stroke="#60A5FA" class="pulse-ring" opacity="0.25" style="animation-delay: 0.3s"/>

  <!-- Rotating Glow Background -->
  <circle cx="200" cy="200" r="140" fill="none" stroke="url(#glowGradient)" class="rotating-glow" stroke-width="30"/>

  <!-- Main Background Circle -->
  <circle cx="200" cy="200" r="125" fill="url(#logoGradient)" stroke="#ffffff" stroke-width="6"/>

  <!-- Glow Overlay -->
  <circle cx="200" cy="200" r="125" fill="url(#glowGradient)" opacity="0.5"/>

  <!-- Main Logo Group with Float Animation -->
  <g class="floating">
    <!-- House Group -->
    <g id="house">
      <!-- House Body - THICK STROKES -->
      <rect x="90" y="160" width="220" height="140" fill="none" stroke="#FFFFFF" stroke-width="8" rx="12" filter="url(#boldGlow)"/>

      <!-- Roof - BOLD -->
      <polygon points="90,160 200,50 310,160" fill="none" stroke="#FFFFFF" stroke-width="8" stroke-linejoin="round" filter="url(#boldGlow)"/>

      <!-- Roof Accent - Inner line -->
      <polygon points="98,156 200,68 302,156" fill="none" stroke="#60A5FA" stroke-width="3" stroke-linejoin="round" opacity="0.7"/>

      <!-- Door - LARGE & PROMINENT -->
      <rect x="155" y="195" width="90" height="105" fill="none" stroke="#FFFFFF" stroke-width="6" rx="8" filter="url(#boldGlow)"/>
      <circle cx="235" cy="255" r="8" fill="#60A5FA" filter="url(#boldGlow)"/>
      <circle cx="238" cy="255" r="5" fill="#FFFFFF"/>

      <!-- Window 1 (Left) - LARGER -->
      <rect x="105" y="170" width="45" height="40" fill="none" stroke="#FFFFFF" stroke-width="4" filter="url(#boldGlow)"/>
      <line x1="127.5" y1="170" x2="127.5" y2="210" stroke="#FFFFFF" stroke-width="2.5" opacity="0.8"/>
      <line x1="105" y1="190" x2="150" y2="190" stroke="#FFFFFF" stroke-width="2.5" opacity="0.8"/>
      <rect x="105" y="170" width="45" height="40" fill="#60A5FA" opacity="0.15"/>

      <!-- Window 2 (Right) - LARGER -->
      <rect x="250" y="170" width="45" height="40" fill="none" stroke="#FFFFFF" stroke-width="4" filter="url(#boldGlow)"/>
      <line x1="272.5" y1="170" x2="272.5" y2="210" stroke="#FFFFFF" stroke-width="2.5" opacity="0.8"/>
      <line x1="250" y1="190" x2="295" y2="190" stroke="#FFFFFF" stroke-width="2.5" opacity="0.8"/>
      <rect x="250" y="170" width="45" height="40" fill="#60A5FA" opacity="0.15"/>

      <!-- Chimney - BOLD & THICK -->
      <rect x="285" y="85" width="18" height="80" fill="#60A5FA" stroke="#FFFFFF" stroke-width="3" filter="url(#boldGlow)"/>
      <rect x="282" y="80" width="24" height="10" fill="#FFFFFF" stroke="#60A5FA" stroke-width="2" filter="url(#boldGlow)"/>
      <rect x="282" y="80" width="24" height="10" fill="#60A5FA" opacity="0.4"/>

      <!-- Smoke Animation - LARGER -->
      <circle cx="294" cy="78" r="5" fill="#FFFFFF" opacity="0.7" style="animation: pulse 2s ease-in-out infinite; animation-delay: 0s;"/>
      <circle cx="294" cy="78" r="3" fill="#60A5FA" opacity="0.5" style="animation: pulse 2s ease-in-out infinite; animation-delay: 0.4s;"/>
      <circle cx="294" cy="78" r="6" fill="#FFFFFF" opacity="0.4" style="animation: pulse 2.5s ease-in-out infinite; animation-delay: 0.8s;"/>
    </g>

    <!-- Book Symbol (Education - SUPER ENLARGED) -->
    <g id="book" transform="translate(200, 300)">
      <!-- Book Cover - THICK -->
      <path d="M -35 -12 Q -18 -22 0 -18 Q 18 -22 35 -12" fill="none" stroke="#FFFFFF" stroke-width="5" stroke-linecap="round" filter="url(#boldGlow)"/>
      <line x1="-35" y1="-12" x2="-35" y2="20" stroke="#FFFFFF" stroke-width="5" stroke-linecap="round" filter="url(#boldGlow)"/>
      <line x1="0" y1="-18" x2="0" y2="20" stroke="#60A5FA" stroke-width="3" stroke-linecap="round" opacity="0.8"/>
      <line x1="35" y1="-12" x2="35" y2="20" stroke="#FFFFFF" stroke-width="5" stroke-linecap="round" filter="url(#boldGlow)"/>

      <!-- Book Pages - BOLD -->
      <path d="M -32 0 Q -15 -3 0 0" fill="none" stroke="#60A5FA" stroke-width="2.5" opacity="0.7" stroke-dasharray="6,3"/>
      <path d="M -32 6 Q -15 3 0 6" fill="none" stroke="#60A5FA" stroke-width="2.5" opacity="0.7" stroke-dasharray="6,3"/>
      <path d="M -32 12 Q -15 9 0 12" fill="none" stroke="#60A5FA" stroke-width="2.5" opacity="0.7" stroke-dasharray="6,3"/>
    </g>

    <!-- Star Accent (Excellence) - LARGE & BOLD -->
    <g id="star" transform="translate(300, 120)" class="star-icon">
      <polygon points="0,-18 5,-6 18,-3 9,4 12,18 0,12 -12,18 -9,4 -18,-3 -5,-6" fill="#60A5FA" stroke="#FFFFFF" stroke-width="2" filter="url(#boldGlow)"/>
      <!-- Star Glow -->
      <polygon points="0,-18 5,-6 18,-3 9,4 12,18 0,12 -12,18 -9,4 -18,-3 -5,-6" fill="#FFFFFF" opacity="0.3"/>
    </g>

    <!-- Lightbulb (Innovation) - SUPER LARGE -->
    <g id="lightbulb" transform="translate(100, 120)" class="bulb-glow">
      <!-- Bulb - BOLD -->
      <circle cx="0" cy="-3" r="12" fill="none" stroke="#60A5FA" stroke-width="4" filter="url(#boldGlow)"/>
      <circle cx="0" cy="-3" r="10" fill="#60A5FA" opacity="0.25"/>
      <!-- Filament - THICK -->
      <path d="M -5 3 Q 0 10 5 3" fill="none" stroke="#60A5FA" stroke-width="3" stroke-linecap="round" filter="url(#boldGlow)"/>
      <!-- Base - BOLD -->
      <rect x="-6" y="6" width="12" height="5" fill="#FFFFFF" stroke="#60A5FA" stroke-width="2" filter="url(#boldGlow)"/>
      <!-- Light Rays - THICK -->
      <line x1="0" y1="-18" x2="0" y2="-28" stroke="#FFFFFF" stroke-width="3" stroke-linecap="round" opacity="0.8" filter="url(#glow)"/>
      <line x1="12" y1="-8" x2="18" y2="-14" stroke="#FFFFFF" stroke-width="3" stroke-linecap="round" opacity="0.8" filter="url(#glow)"/>
      <line x1="-12" y1="-8" x2="-18" y2="-14" stroke="#FFFFFF" stroke-width="3" stroke-linecap="round" opacity="0.8" filter="url(#glow)"/>
    </g>

    <!-- Decorative Orbiting Dots - LARGER -->
    <g id="orbits" style="animation: rotate 6s linear infinite;">
      <circle cx="200" cy="80" r="6" fill="#60A5FA" opacity="0.9" filter="url(#boldGlow)"/>
      <circle cx="320" cy="200" r="5" fill="#60A5FA" opacity="0.7" filter="url(#boldGlow)"/>
      <circle cx="200" cy="320" r="6" fill="#60A5FA" opacity="0.8" filter="url(#boldGlow)"/>
      <circle cx="80" cy="200" r="5" fill="#60A5FA" opacity="0.7" filter="url(#boldGlow)"/>
    </g>
  </g>
</svg>
